<?xml version="1.0" encoding="utf-8"?>
<!-- Generator: Adobe Illustrator 23.0.3, SVG Export Plug-In . SVG Version: 6.00 Build 0)  -->
<svg version="1.1" id="Capa_1" xmlns="http://www.w3.org/2000/svg" xmlns:xlink="http://www.w3.org/1999/xlink" x="0px" y="0px"
	 viewBox="0 0 20 20" style="enable-background:new 0 0 20 20;" xml:space="preserve">
<style type="text/css">
	.st0{fill:#FFFFFF;}
</style>
<g>
	<g>
		<path class="st0" d="M19.2,14.5c-0.2-0.2-0.5-0.3-0.7-0.2c-0.7,0.3-1.5,0.4-2.4,0.4c-4,0-7.3-3.3-7.3-7.3c0-2.4,1.2-4.7,3.2-6.1
			c0.2-0.2,0.3-0.4,0.3-0.7s-0.3-0.5-0.6-0.5C11.3,0,11,0,10.7,0c-5.5,0-10,4.5-10,10s4.5,10,10,10c3.5,0,6.7-1.8,8.5-4.8
			C19.4,15,19.3,14.7,19.2,14.5z"/>
	</g>
</g>
</svg>
