<?xml version="1.0" encoding="utf-8"?>
<!-- Generator: Adobe Illustrator 23.0.3, SVG Export Plug-In . SVG Version: 6.00 Build 0)  -->
<svg version="1.1" id="Capa_1" xmlns="http://www.w3.org/2000/svg" xmlns:xlink="http://www.w3.org/1999/xlink" x="0px" y="0px"
	 viewBox="0 0 20 20" style="enable-background:new 0 0 20 20;" xml:space="preserve">
<g>
	<g>
		<path d="M10,5c-2.8,0-5,2.2-5,5s2.2,5,5,5s5-2.2,5-5S12.8,5,10,5z"/>
		<g>
			<g>
				<path d="M10,3.5c-0.5,0-1-0.4-1-1V1c0-0.5,0.4-1,1-1s1,0.4,1,1v1.6C11,3.1,10.5,3.5,10,3.5z"/>
			</g>
			<g>
				<path d="M10,16.5c-0.5,0-1,0.4-1,1V19c0,0.5,0.4,1,1,1s1-0.4,1-1v-1.6C11,16.9,10.5,16.5,10,16.5z"/>
			</g>
			<g>
				<path d="M14.6,5.4c-0.4-0.4-0.4-1,0-1.4l1.1-1.1c0.4-0.4,1-0.4,1.4,0s0.4,1,0,1.4L16,5.4C15.6,5.8,15,5.8,14.6,5.4z"/>
			</g>
			<g>
				<path d="M5.4,14.6c-0.4-0.4-1-0.4-1.4,0l-1.1,1.1c-0.4,0.4-0.4,1,0,1.4s1,0.4,1.4,0L5.4,16C5.8,15.6,5.8,15,5.4,14.6z"/>
			</g>
			<g>
				<path d="M16.5,10c0-0.5,0.4-1,1-1H19c0.5,0,1,0.4,1,1s-0.4,1-1,1h-1.6C16.9,11,16.5,10.5,16.5,10z"/>
			</g>
			<g>
				<path d="M3.5,10c0-0.5-0.4-1-1-1H1c-0.5,0-1,0.4-1,1s0.4,1,1,1h1.6C3.1,11,3.5,10.5,3.5,10z"/>
			</g>
			<g>
				<path d="M14.6,14.6c0.4-0.4,1-0.4,1.4,0l1.1,1.1c0.4,0.4,0.4,1,0,1.4s-1,0.4-1.4,0L14.6,16C14.2,15.6,14.2,15,14.6,14.6z"/>
			</g>
			<g>
				<path d="M5.4,5.4c0.4-0.4,0.4-1,0-1.4L4.3,2.9c-0.4-0.4-1-0.4-1.4,0s-0.4,1,0,1.4L4,5.4C4.4,5.8,5,5.8,5.4,5.4z"/>
			</g>
		</g>
	</g>
</g>
</svg>
